<svg width="16" height="16" viewBox="0 0 16 16" fill="none" xmlns="http://www.w3.org/2000/svg">
<path fill-rule="evenodd" clip-rule="evenodd" d="M7.99996 15.5199C12.1531 15.5199 15.5199 12.1531 15.5199 7.99996C15.5199 3.8468 12.1531 0.479998 7.99996 0.479998C3.8468 0.479998 0.479998 3.8468 0.479998 7.99996C0.479998 12.1531 3.8468 15.5199 7.99996 15.5199ZM7.99996 15.9999C12.4182 15.9999 15.9999 12.4182 15.9999 7.99996C15.9999 3.5817 12.4182 0 7.99996 0C3.5817 0 0 3.5817 0 7.99996C0 12.4182 3.5817 15.9999 7.99996 15.9999Z" fill="white"/>
<path fill-rule="evenodd" clip-rule="evenodd" d="M7.99996 11.9643C10.1895 11.9643 11.9644 10.1893 11.9644 7.99984C11.9644 5.81035 10.1895 4.03542 7.99996 4.03542C5.81047 4.03542 4.03554 5.81035 4.03554 7.99984C4.03554 10.1893 5.81047 11.9643 7.99996 11.9643ZM7.99996 12.4443C10.4546 12.4443 12.4444 10.4544 12.4444 7.99984C12.4444 5.54526 10.4546 3.55542 7.99996 3.55542C5.54538 3.55542 3.55554 5.54526 3.55554 7.99984C3.55554 10.4544 5.54538 12.4443 7.99996 12.4443Z" fill="white"/>
<path fill-rule="evenodd" clip-rule="evenodd" d="M8.00003 8.4091C7.77421 8.4091 7.59114 8.22603 7.59114 8.00021C7.59114 7.77439 7.77421 7.59133 8.00003 7.59133C8.22585 7.59133 8.40892 7.77439 8.40892 8.00021C8.40892 8.22603 8.22585 8.4091 8.00003 8.4091ZM8.00003 8.8891C7.50911 8.8891 7.11115 8.49113 7.11115 8.00021C7.11115 7.5093 7.50911 7.11133 8.00003 7.11133C8.49095 7.11133 8.88892 7.5093 8.88892 8.00021C8.88892 8.49113 8.49095 8.8891 8.00003 8.8891Z" fill="white"/>
</svg>
